<svg width="96" height="96" viewBox="0 0 96 96" fill="none" xmlns="http://www.w3.org/2000/svg">
<path d="M37.6 37.7333C16.9333 58.4 0 76.2667 0 77.3333C0 80 16.1333 96 18.6667 96C21.3333 96 96 21.2 96 18.6666C96 16 79.8667 -2.02656e-05 77.3333 -2.02656e-05C76.2667 -2.02656e-05 58.4 16.9333 37.6 37.7333ZM86 10.6666L94 18.6666L56.2667 56.4L18.6667 94L10.5333 85.8667C5.46667 80.8 2.66667 77.0667 3.33333 76C4 74.9333 5.06667 75.2 7.2 77.2C11.0667 80.9333 12.9333 79.0667 9.2 75.2C6.13333 72 8 69.2 11.3333 72C12.6667 73.0667 13.3333 73.2 13.3333 72.2667C13.3333 71.4667 12.6667 70.4 11.8667 69.8667C10.8 69.3333 10.8 68.6666 11.8667 67.6C12.8 66.6666 14 66.9333 16 68.6666C19.4667 71.8667 21.2 70.1333 18 66.6666C15.6 64 15.6 63.8666 18.6667 60.6666L21.8667 57.3333L24.9333 60.2666C28.4 63.6 29.0667 62.1333 25.7333 58.4C22.6667 55.0666 25.3333 52 28.9333 54.8C31.2 56.5333 31.2 56.5333 29.4667 54.2666C27.0667 51.2 29.4667 48.2666 32 51.3333C32.9333 52.4 34.5333 53.3333 35.7333 53.3333C37.3333 53.3333 37.2 52.6666 34.8 50.1333C31.6 46.6666 33.2 43.7333 36.6667 46.6666C38 47.7333 38.6667 47.8666 38.6667 46.9333C38.6667 46.1333 38 45.0666 37.2 44.5333C36.1333 44 36.1333 43.3333 37.2 42.2666C38.1333 41.3333 39.3333 41.6 41.3333 43.3333C44.8 46.4 46.5333 44.8 43.4667 41.4666C40.9333 38.6666 41.8667 34.6666 44.4 37.2C46.5333 39.3333 48.5333 38.9333 46.6667 36.6666C43.7333 33.2 46.6667 31.6 50.1333 34.8C52.6667 37.2 53.3333 37.3333 53.3333 35.7333C53.3333 34.5333 52.4 32.9333 51.3333 32C48.2667 29.4666 51.2 27.0666 54.2667 29.4666C56.5333 31.2 56.5333 31.2 54.8 28.9333C52 25.3333 55.0667 22.6666 58.4 25.7333C62.1333 29.0666 63.6 28.4 60.2667 24.9333L57.3333 21.8666L60.6667 18.6666C63.8667 15.6 64 15.6 66.6667 18C70.1333 21.0666 71.8667 19.4666 68.8 16.1333C66.2667 13.3333 67.2 9.33331 69.7333 11.8666C71.8667 14 73.8667 13.6 72 11.3333C69.2 7.99998 72 6.13331 75.3333 9.33331C77.0667 10.9333 78.8 11.6 79.2 10.9333C79.6 10.2666 78.8 8.66665 77.3333 7.33331C74.9333 5.19998 74.8 2.66665 77.0667 2.66665C77.6 2.66665 81.6 6.26665 86 10.6666Z" fill="white"/>
<path d="M83.8668 23.6L79.3335 28.6667L84.4002 24.1333C88.9335 19.7333 90.0002 18.6667 88.9335 18.6667C88.6668 18.6667 86.4002 20.9333 83.8668 23.6Z" fill="white"/>
<path d="M52.0002 55.6L35.3335 72.6667L52.4002 56C61.7335 46.8 69.3335 39.2 69.3335 39.0667C69.3335 38 67.4668 39.8667 52.0002 55.6Z" fill="white"/>
<path d="M24 83.3333C20.8 86.6666 18.4 89.3333 18.8 89.3333C19.2 89.3333 22.1333 86.6666 25.3333 83.3333C28.5333 80 30.9333 77.3333 30.5333 77.3333C30.1333 77.3333 27.2 80 24 83.3333Z" fill="white"/>
</svg>
