<svg width="61" height="60" viewBox="0 0 61 60" fill="none" xmlns="http://www.w3.org/2000/svg">
<path d="M34.7864 2.53313C31.453 4.7998 29.453 5.06647 22.5197 4.3998L14.253 3.5998L8.11971 9.9998C2.38637 16.1331 2.11971 16.7998 2.78637 22.1331C3.31971 25.5998 2.91971 28.9331 1.98637 30.7998C-0.546961 35.4665 -0.680294 51.9998 1.71971 54.7998C2.78637 55.9998 7.71971 57.7331 12.7864 58.6665C20.653 59.9998 23.9864 59.8665 36.1197 57.8665C49.853 55.4665 50.3864 55.3331 55.453 49.7331C60.9197 43.7331 62.1197 39.4665 59.453 34.3998C58.3864 32.6665 58.5197 31.0665 59.453 29.1998C60.253 27.5998 60.5197 23.8665 59.9864 19.7331C59.3197 14.5331 58.3864 12.6665 56.1197 11.5998C54.3864 10.7998 52.7864 8.53313 52.3864 6.53313C51.853 3.86647 50.3864 2.3998 47.3197 1.33313C41.453 -0.666867 39.3197 -0.533534 34.7864 2.53313ZM44.5197 4.26647C45.3197 5.1998 45.7197 11.4665 45.5864 19.7331L45.1864 33.4665L38.653 37.0665C34.9197 39.0665 31.9864 41.5998 31.7197 43.1998C30.9197 47.3331 28.653 49.3331 25.853 48.3998C24.253 47.8665 21.853 49.0665 18.653 51.7331C13.5864 56.2665 11.1864 56.6665 6.11971 54.1331C3.05304 52.6665 2.78637 51.5998 2.65304 43.8665C2.65304 38.3998 3.31971 34.1331 4.51971 32.1331C5.85304 30.1331 6.25304 27.3331 5.71971 23.4665C4.91971 18.2665 5.31971 17.3331 10.253 11.9998L15.5864 6.26647L23.1864 7.06647C29.3197 7.73313 31.7197 7.33313 35.453 5.1998C41.053 2.13313 42.653 1.9998 44.5197 4.26647ZM53.3197 12.9331C57.1864 14.6665 58.9197 23.3331 56.5197 28.5331C55.3197 31.3331 55.3197 32.6665 56.5197 34.6665C59.1864 38.7998 58.3864 42.2665 53.453 47.7331C49.053 52.5331 47.853 53.0665 36.253 55.1998C29.3197 56.3998 22.253 57.1998 20.5197 56.9331L17.453 56.5331L20.5197 53.4665C22.5197 51.4665 24.5197 50.6665 26.1197 51.1998C29.053 52.1331 34.1197 47.7331 34.1197 44.1331C34.1197 42.6665 36.653 40.6665 41.1864 38.5331L48.1197 35.1998L48.253 25.1998C48.5197 10.6665 49.053 3.73313 49.7197 7.9998C49.9864 9.9998 51.5864 12.1331 53.3197 12.9331Z" fill="white"/>
<path d="M28.3864 15.1998C23.7197 18.3998 23.4531 19.0665 24.2531 23.5998C25.5864 31.4665 27.7197 32.7998 33.1864 29.3331C38.1197 26.2665 39.7197 21.9998 38.2531 15.9998C36.9197 11.3331 34.3864 11.1998 28.3864 15.1998ZM35.4531 20.2665C35.3197 24.9331 29.3197 31.0665 28.2531 27.5998C25.9864 20.6665 26.2531 19.0665 29.8531 17.0665C34.3864 14.3998 35.4531 14.9331 35.4531 20.2665Z" fill="white"/>
<path d="M12.5199 29.8665C11.3199 32.6665 11.4532 33.5998 13.4532 35.8665C16.6532 39.4665 17.9866 39.1998 19.5866 35.0665C20.5199 32.2665 20.3866 30.9331 18.6532 29.0665C15.5866 25.7331 14.3866 25.8665 12.5199 29.8665ZM17.3199 33.3331C16.9199 33.9998 15.9866 34.2665 15.3199 33.7331C14.6532 33.3331 14.3866 32.3998 14.9199 31.7331C15.3199 31.0665 16.2532 30.7998 16.9199 31.3331C17.5866 31.7331 17.8532 32.6665 17.3199 33.3331Z" fill="white"/>
</svg>
