<svg width="89" height="87" viewBox="0 0 89 87" fill="none" xmlns="http://www.w3.org/2000/svg">
<path d="M1.7 1.7C-0.566667 3.96666 -0.566667 68.2333 1.7 70.5C2.63333 71.4333 6.5 72.1 10.3667 72.1C16.9 72.1 17.4333 72.3667 17.4333 75.3C17.4333 77.1667 16.7667 80.2333 16.1 82.2333C15.3 84.2333 15.0333 86.1 15.3 86.3667C17.0333 88.1 25.8333 83.3 30.6333 77.9667L36.1 72.1H60.5C77.7 72.1 85.4333 71.5667 86.5 70.5C88.7667 68.2333 88.7667 3.96666 86.5 1.7C84.2333 -0.56667 3.96667 -0.56667 1.7 1.7ZM84.7667 36.1V68.7667L59.9667 69.1667L35.0333 69.4333L28.5 76.1C21.0333 83.5667 18.3667 84.5 19.4333 79.4333C21.7 68.5 22.5 69.5667 12.5 69.1667L3.43333 68.7667L3.03333 37.4333C2.9 20.2333 3.03333 5.43333 3.43333 4.5C3.83333 3.03333 12.5 2.76666 44.3667 3.03333L84.7667 3.43333V36.1Z" fill="white"/>
<path d="M8.1001 9.43334C8.1001 10.1 8.76676 10.7667 9.43343 10.7667C10.2334 10.7667 10.7668 10.1 10.7668 9.43334C10.7668 8.63334 10.2334 8.1 9.43343 8.1C8.76676 8.1 8.1001 8.63334 8.1001 9.43334Z" fill="white"/>
<path d="M13.4331 9.43334C13.4331 10.1 14.0998 10.7667 14.7664 10.7667C15.5664 10.7667 16.0998 10.1 16.0998 9.43334C16.0998 8.63334 15.5664 8.1 14.7664 8.1C14.0998 8.1 13.4331 8.63334 13.4331 9.43334Z" fill="white"/>
<path d="M18.7666 9.43334C18.7666 10.1 19.4333 10.7667 20.0999 10.7667C20.8999 10.7667 21.4333 10.1 21.4333 9.43334C21.4333 8.63334 20.8999 8.1 20.0999 8.1C19.4333 8.1 18.7666 8.63334 18.7666 9.43334Z" fill="white"/>
<path d="M24.1001 9.43334C24.1001 10.1 24.7668 10.7667 25.4334 10.7667C26.2334 10.7667 26.7668 10.1 26.7668 9.43334C26.7668 8.63334 26.2334 8.1 25.4334 8.1C24.7668 8.1 24.1001 8.63334 24.1001 9.43334Z" fill="white"/>
<path d="M29.4331 9.43334C29.4331 10.1 30.0998 10.7667 30.7664 10.7667C31.5664 10.7667 32.0998 10.1 32.0998 9.43334C32.0998 8.63334 31.5664 8.1 30.7664 8.1C30.0998 8.1 29.4331 8.63334 29.4331 9.43334Z" fill="white"/>
<path d="M34.7666 9.43334C34.7666 10.1 35.4333 10.7667 36.0999 10.7667C36.8999 10.7667 37.4333 10.1 37.4333 9.43334C37.4333 8.63334 36.8999 8.1 36.0999 8.1C35.4333 8.1 34.7666 8.63334 34.7666 9.43334Z" fill="white"/>
<path d="M40.1001 9.43334C40.1001 10.1 40.7668 10.7667 41.4334 10.7667C42.2334 10.7667 42.7668 10.1 42.7668 9.43334C42.7668 8.63334 42.2334 8.1 41.4334 8.1C40.7668 8.1 40.1001 8.63334 40.1001 9.43334Z" fill="white"/>
<path d="M45.4331 9.43334C45.4331 10.1 46.0998 10.7667 46.7664 10.7667C47.5664 10.7667 48.0998 10.1 48.0998 9.43334C48.0998 8.63334 47.5664 8.1 46.7664 8.1C46.0998 8.1 45.4331 8.63334 45.4331 9.43334Z" fill="white"/>
<path d="M50.7666 9.43334C50.7666 10.1 51.4333 10.7667 52.0999 10.7667C52.8999 10.7667 53.4333 10.1 53.4333 9.43334C53.4333 8.63334 52.8999 8.1 52.0999 8.1C51.4333 8.1 50.7666 8.63334 50.7666 9.43334Z" fill="white"/>
<path d="M56.1001 9.43334C56.1001 10.1 56.7668 10.7667 57.4334 10.7667C58.2334 10.7667 58.7668 10.1 58.7668 9.43334C58.7668 8.63334 58.2334 8.1 57.4334 8.1C56.7668 8.1 56.1001 8.63334 56.1001 9.43334Z" fill="white"/>
<path d="M61.4331 9.43334C61.4331 10.1 62.0998 10.7667 62.7664 10.7667C63.5664 10.7667 64.0998 10.1 64.0998 9.43334C64.0998 8.63334 63.5664 8.1 62.7664 8.1C62.0998 8.1 61.4331 8.63334 61.4331 9.43334Z" fill="white"/>
<path d="M66.7666 9.43334C66.7666 10.1 67.4333 10.7667 68.0999 10.7667C68.8999 10.7667 69.4333 10.1 69.4333 9.43334C69.4333 8.63334 68.8999 8.1 68.0999 8.1C67.4333 8.1 66.7666 8.63334 66.7666 9.43334Z" fill="white"/>
<path d="M72.1001 9.43334C72.1001 10.1 72.7668 10.7667 73.4334 10.7667C74.2334 10.7667 74.7668 10.1 74.7668 9.43334C74.7668 8.63334 74.2334 8.1 73.4334 8.1C72.7668 8.1 72.1001 8.63334 72.1001 9.43334Z" fill="white"/>
<path d="M77.4331 9.43334C77.4331 10.1 78.0998 10.7667 78.7664 10.7667C79.5664 10.7667 80.0998 10.1 80.0998 9.43334C80.0998 8.63334 79.5664 8.1 78.7664 8.1C78.0998 8.1 77.4331 8.63334 77.4331 9.43334Z" fill="white"/>
<path d="M8.1001 14.7667C8.1001 15.4333 8.76676 16.1 9.43343 16.1C10.2334 16.1 10.7668 15.4333 10.7668 14.7667C10.7668 13.9667 10.2334 13.4333 9.43343 13.4333C8.76676 13.4333 8.1001 13.9667 8.1001 14.7667Z" fill="white"/>
<path d="M77.4331 14.7667C77.4331 15.4333 78.0998 16.1 78.7664 16.1C79.5664 16.1 80.0998 15.4333 80.0998 14.7667C80.0998 13.9667 79.5664 13.4333 78.7664 13.4333C78.0998 13.4333 77.4331 13.9667 77.4331 14.7667Z" fill="white"/>
<path d="M23.4333 17.4333C22.0999 19.4333 26.6333 26.7667 29.1666 26.7667C30.4999 26.7667 33.1666 28.5 35.1666 30.5L38.7666 34.2333L31.4333 41.4333C23.9666 48.7667 22.7666 51.5667 25.6999 54.5C28.4999 57.3 31.4333 56.2333 37.4333 50.1L43.2999 44.1L49.4333 50.1C55.6999 56.2333 58.3666 57.3 61.1666 54.5C63.9666 51.7 62.8999 49.0333 56.6333 42.6333C51.1666 37.0333 50.8999 36.5 53.8333 37.0333C58.4999 37.9667 64.0999 32.3667 64.0999 26.9C64.0999 21.5667 62.3666 20.9 58.7666 24.7667C56.3666 27.3 55.2999 27.7 53.8333 26.5C52.3666 25.3 52.6333 24.3667 55.4333 21.4333C59.2999 17.4333 58.6333 16.1 53.1666 16.1C48.3666 16.1 42.4999 21.7 43.0333 25.8333C43.6999 31.5667 41.4333 32.6333 37.2999 28.6333C35.1666 26.6333 33.4333 23.8333 33.4333 22.5C33.4333 21.3 31.6999 19.3 29.4333 18.1C24.8999 15.7 24.4999 15.7 23.4333 17.4333ZM51.6999 21.1667C47.0333 26.3667 53.8333 33.1667 59.0333 28.5C61.9666 25.8333 62.0999 27.8333 59.2999 31.8333C56.6333 35.7 53.2999 35.5667 48.8999 31.3C44.6333 26.9 44.4999 23.5667 48.3666 20.9C52.3666 18.1 54.3666 18.2333 51.6999 21.1667ZM30.7666 22.9C30.7666 24.7667 28.4999 24.2333 27.6999 22.2333C27.1666 20.9 27.5666 20.5 28.8999 21.0333C29.8333 21.4333 30.7666 22.2333 30.7666 22.9ZM47.6999 34.2333C47.9666 34.9 43.9666 39.7 38.7666 44.7667C31.4333 52.1 29.1666 53.7 27.8333 52.3667C26.4999 51.0333 28.0999 48.7667 35.4333 41.4333C44.0999 32.6333 46.6333 31.1667 47.6999 34.2333ZM59.0333 52.3667C56.6333 54.7667 44.7666 43.0333 47.0333 40.5C48.2333 38.9 49.6999 39.7 54.6333 44.6333C59.4333 49.4333 60.3666 51.0333 59.0333 52.3667Z" fill="white"/>
<path d="M8.1001 20.1C8.1001 20.7667 8.76676 21.4333 9.43343 21.4333C10.2334 21.4333 10.7668 20.7667 10.7668 20.1C10.7668 19.3 10.2334 18.7667 9.43343 18.7667C8.76676 18.7667 8.1001 19.3 8.1001 20.1Z" fill="white"/>
<path d="M77.4331 20.1C77.4331 20.7667 78.0998 21.4333 78.7664 21.4333C79.5664 21.4333 80.0998 20.7667 80.0998 20.1C80.0998 19.3 79.5664 18.7667 78.7664 18.7667C78.0998 18.7667 77.4331 19.3 77.4331 20.1Z" fill="white"/>
<path d="M8.1001 25.4333C8.1001 26.1 8.76676 26.7667 9.43343 26.7667C10.2334 26.7667 10.7668 26.1 10.7668 25.4333C10.7668 24.6333 10.2334 24.1 9.43343 24.1C8.76676 24.1 8.1001 24.6333 8.1001 25.4333Z" fill="white"/>
<path d="M77.4331 25.4333C77.4331 26.1 78.0998 26.7667 78.7664 26.7667C79.5664 26.7667 80.0998 26.1 80.0998 25.4333C80.0998 24.6333 79.5664 24.1 78.7664 24.1C78.0998 24.1 77.4331 24.6333 77.4331 25.4333Z" fill="white"/>
<path d="M8.1001 30.7667C8.1001 31.4333 8.76676 32.1 9.43343 32.1C10.2334 32.1 10.7668 31.4333 10.7668 30.7667C10.7668 29.9667 10.2334 29.4333 9.43343 29.4333C8.76676 29.4333 8.1001 29.9667 8.1001 30.7667Z" fill="white"/>
<path d="M77.4331 30.7667C77.4331 31.4333 78.0998 32.1 78.7664 32.1C79.5664 32.1 80.0998 31.4333 80.0998 30.7667C80.0998 29.9667 79.5664 29.4333 78.7664 29.4333C78.0998 29.4333 77.4331 29.9667 77.4331 30.7667Z" fill="white"/>
<path d="M8.1001 36.1C8.1001 36.7667 8.76676 37.4333 9.43343 37.4333C10.2334 37.4333 10.7668 36.7667 10.7668 36.1C10.7668 35.3 10.2334 34.7667 9.43343 34.7667C8.76676 34.7667 8.1001 35.3 8.1001 36.1Z" fill="white"/>
<path d="M77.4331 36.1C77.4331 36.7667 78.0998 37.4333 78.7664 37.4333C79.5664 37.4333 80.0998 36.7667 80.0998 36.1C80.0998 35.3 79.5664 34.7667 78.7664 34.7667C78.0998 34.7667 77.4331 35.3 77.4331 36.1Z" fill="white"/>
<path d="M8.1001 41.4333C8.1001 42.1 8.76676 42.7667 9.43343 42.7667C10.2334 42.7667 10.7668 42.1 10.7668 41.4333C10.7668 40.6333 10.2334 40.1 9.43343 40.1C8.76676 40.1 8.1001 40.6333 8.1001 41.4333Z" fill="white"/>
<path d="M77.4331 41.4333C77.4331 42.1 78.0998 42.7667 78.7664 42.7667C79.5664 42.7667 80.0998 42.1 80.0998 41.4333C80.0998 40.6333 79.5664 40.1 78.7664 40.1C78.0998 40.1 77.4331 40.6333 77.4331 41.4333Z" fill="white"/>
<path d="M8.1001 46.7667C8.1001 47.4333 8.76676 48.1 9.43343 48.1C10.2334 48.1 10.7668 47.4333 10.7668 46.7667C10.7668 45.9667 10.2334 45.4333 9.43343 45.4333C8.76676 45.4333 8.1001 45.9667 8.1001 46.7667Z" fill="white"/>
<path d="M77.4331 46.7667C77.4331 47.4333 78.0998 48.1 78.7664 48.1C79.5664 48.1 80.0998 47.4333 80.0998 46.7667C80.0998 45.9667 79.5664 45.4333 78.7664 45.4333C78.0998 45.4333 77.4331 45.9667 77.4331 46.7667Z" fill="white"/>
<path d="M8.1001 52.1C8.1001 52.7667 8.76676 53.4333 9.43343 53.4333C10.2334 53.4333 10.7668 52.7667 10.7668 52.1C10.7668 51.3 10.2334 50.7667 9.43343 50.7667C8.76676 50.7667 8.1001 51.3 8.1001 52.1Z" fill="white"/>
<path d="M77.4331 52.1C77.4331 52.7667 78.0998 53.4333 78.7664 53.4333C79.5664 53.4333 80.0998 52.7667 80.0998 52.1C80.0998 51.3 79.5664 50.7667 78.7664 50.7667C78.0998 50.7667 77.4331 51.3 77.4331 52.1Z" fill="white"/>
<path d="M8.1001 57.4333C8.1001 58.1 8.76676 58.7667 9.43343 58.7667C10.2334 58.7667 10.7668 58.1 10.7668 57.4333C10.7668 56.6333 10.2334 56.1 9.43343 56.1C8.76676 56.1 8.1001 56.6333 8.1001 57.4333Z" fill="white"/>
<path d="M77.4331 57.4333C77.4331 58.1 78.0998 58.7667 78.7664 58.7667C79.5664 58.7667 80.0998 58.1 80.0998 57.4333C80.0998 56.6333 79.5664 56.1 78.7664 56.1C78.0998 56.1 77.4331 56.6333 77.4331 57.4333Z" fill="white"/>
<path d="M8.1001 62.7667C8.1001 63.4333 8.76676 64.1 9.43343 64.1C10.2334 64.1 10.7668 63.4333 10.7668 62.7667C10.7668 61.9667 10.2334 61.4333 9.43343 61.4333C8.76676 61.4333 8.1001 61.9667 8.1001 62.7667Z" fill="white"/>
<path d="M13.4331 62.7667C13.4331 63.4333 14.0998 64.1 14.7664 64.1C15.5664 64.1 16.0998 63.4333 16.0998 62.7667C16.0998 61.9667 15.5664 61.4333 14.7664 61.4333C14.0998 61.4333 13.4331 61.9667 13.4331 62.7667Z" fill="white"/>
<path d="M18.7666 62.7667C18.7666 63.4333 19.4333 64.1 20.0999 64.1C20.8999 64.1 21.4333 63.4333 21.4333 62.7667C21.4333 61.9667 20.8999 61.4333 20.0999 61.4333C19.4333 61.4333 18.7666 61.9667 18.7666 62.7667Z" fill="white"/>
<path d="M24.1001 62.7667C24.1001 63.4333 24.7668 64.1 25.4334 64.1C26.2334 64.1 26.7668 63.4333 26.7668 62.7667C26.7668 61.9667 26.2334 61.4333 25.4334 61.4333C24.7668 61.4333 24.1001 61.9667 24.1001 62.7667Z" fill="white"/>
<path d="M29.4331 62.7667C29.4331 63.4333 30.0998 64.1 30.7664 64.1C31.5664 64.1 32.0998 63.4333 32.0998 62.7667C32.0998 61.9667 31.5664 61.4333 30.7664 61.4333C30.0998 61.4333 29.4331 61.9667 29.4331 62.7667Z" fill="white"/>
<path d="M34.7666 62.7667C34.7666 63.4333 35.4333 64.1 36.0999 64.1C36.8999 64.1 37.4333 63.4333 37.4333 62.7667C37.4333 61.9667 36.8999 61.4333 36.0999 61.4333C35.4333 61.4333 34.7666 61.9667 34.7666 62.7667Z" fill="white"/>
<path d="M40.1001 62.7667C40.1001 63.4333 40.7668 64.1 41.4334 64.1C42.2334 64.1 42.7668 63.4333 42.7668 62.7667C42.7668 61.9667 42.2334 61.4333 41.4334 61.4333C40.7668 61.4333 40.1001 61.9667 40.1001 62.7667Z" fill="white"/>
<path d="M45.4331 62.7667C45.4331 63.4333 46.0998 64.1 46.7664 64.1C47.5664 64.1 48.0998 63.4333 48.0998 62.7667C48.0998 61.9667 47.5664 61.4333 46.7664 61.4333C46.0998 61.4333 45.4331 61.9667 45.4331 62.7667Z" fill="white"/>
<path d="M50.7666 62.7667C50.7666 63.4333 51.4333 64.1 52.0999 64.1C52.8999 64.1 53.4333 63.4333 53.4333 62.7667C53.4333 61.9667 52.8999 61.4333 52.0999 61.4333C51.4333 61.4333 50.7666 61.9667 50.7666 62.7667Z" fill="white"/>
<path d="M56.1001 62.7667C56.1001 63.4333 56.7668 64.1 57.4334 64.1C58.2334 64.1 58.7668 63.4333 58.7668 62.7667C58.7668 61.9667 58.2334 61.4333 57.4334 61.4333C56.7668 61.4333 56.1001 61.9667 56.1001 62.7667Z" fill="white"/>
<path d="M61.4331 62.7667C61.4331 63.4333 62.0998 64.1 62.7664 64.1C63.5664 64.1 64.0998 63.4333 64.0998 62.7667C64.0998 61.9667 63.5664 61.4333 62.7664 61.4333C62.0998 61.4333 61.4331 61.9667 61.4331 62.7667Z" fill="white"/>
<path d="M66.7666 62.7667C66.7666 63.4333 67.4333 64.1 68.0999 64.1C68.8999 64.1 69.4333 63.4333 69.4333 62.7667C69.4333 61.9667 68.8999 61.4333 68.0999 61.4333C67.4333 61.4333 66.7666 61.9667 66.7666 62.7667Z" fill="white"/>
<path d="M72.1001 62.7667C72.1001 63.4333 72.7668 64.1 73.4334 64.1C74.2334 64.1 74.7668 63.4333 74.7668 62.7667C74.7668 61.9667 74.2334 61.4333 73.4334 61.4333C72.7668 61.4333 72.1001 61.9667 72.1001 62.7667Z" fill="white"/>
<path d="M77.4331 62.7667C77.4331 63.4333 78.0998 64.1 78.7664 64.1C79.5664 64.1 80.0998 63.4333 80.0998 62.7667C80.0998 61.9667 79.5664 61.4333 78.7664 61.4333C78.0998 61.4333 77.4331 61.9667 77.4331 62.7667Z" fill="white"/>
</svg>
