<svg width="64" height="63" viewBox="0 0 64 63" fill="none" xmlns="http://www.w3.org/2000/svg">
<path d="M28.3844 19.2056C13.851 29.7389 1.45104 38.8056 0.784375 39.4723C-1.21562 41.4723 0.917709 45.4723 3.71771 44.8056C6.91771 44.0056 14.5177 54.4056 12.7844 57.4723C11.9844 58.9389 12.251 60.1389 13.5844 61.2056C15.1844 62.5389 16.251 62.4056 19.1844 60.5389C21.5844 58.9389 22.9177 58.6723 23.3177 59.6056C24.1177 62.0056 30.251 61.6056 30.251 59.2056C30.251 58.1389 30.9177 57.2056 31.5844 57.2056C32.3844 57.2056 32.9177 56.0056 32.9177 54.5389C32.9177 53.0723 33.851 51.8723 34.9177 51.8723C35.9844 51.8723 36.9177 50.9389 36.9177 49.8723C36.9177 48.8056 37.5844 47.8723 38.251 47.8723C39.051 47.8723 39.5844 46.9389 39.5844 45.8723C39.5844 44.6723 40.5177 43.4723 41.5844 43.0723C42.651 42.5389 43.5844 41.4723 43.5844 40.4056C43.5844 39.3389 44.251 38.5389 44.9177 38.5389C45.7177 38.5389 46.251 37.6056 46.251 36.5389C46.251 35.4723 47.1844 34.5389 48.251 34.5389C49.3177 34.5389 50.251 33.3389 50.251 31.8723C50.251 30.4056 50.9177 29.2056 51.5844 29.2056C52.3844 29.2056 52.9177 28.2723 52.9177 27.2056C52.9177 26.1389 53.851 25.2056 54.9177 25.2056C55.9844 25.2056 56.9177 24.0056 56.9177 22.5389C56.9177 21.0723 57.5844 19.8723 58.251 19.8723C59.051 19.8723 59.5844 18.9389 59.5844 17.8723C59.5844 16.8056 60.5177 15.8723 61.5844 15.8723C64.651 15.8723 63.9844 10.4056 60.251 4.8056C58.3844 2.13893 56.3844 -0.127732 55.851 0.00560164C55.3177 0.00560164 43.051 8.67227 28.3844 19.2056ZM58.3844 6.8056C61.5844 10.8056 61.5844 11.4723 57.5844 15.0723C55.7177 16.8056 54.251 19.2056 54.251 20.4056C54.251 21.6056 53.3177 22.5389 52.251 22.5389C51.1844 22.5389 50.251 23.4723 50.251 24.5389C50.251 25.6056 49.7177 26.5389 48.9177 26.5389C48.251 26.5389 47.5844 27.7389 47.5844 29.2056C47.5844 30.6723 46.651 31.8723 45.5844 31.8723C44.5177 31.8723 43.5844 32.8056 43.5844 33.8723C43.5844 34.9389 43.051 35.8723 42.251 35.8723C41.5844 35.8723 40.9177 36.6723 40.9177 37.7389C40.9177 38.8056 39.9844 39.8723 38.9177 40.4056C37.851 40.8056 36.9177 42.0056 36.9177 43.2056C36.9177 44.2723 36.3844 45.2056 35.5844 45.2056C34.9177 45.2056 34.251 46.0056 34.251 47.0723C34.251 48.1389 33.3177 49.2056 32.251 49.7389C31.1844 50.1389 30.251 51.3389 30.251 52.5389C30.251 53.6056 29.7177 54.5389 28.9177 54.5389C28.251 54.5389 27.5844 55.6056 27.5844 56.8056C27.5844 58.5389 27.1844 58.6723 25.9844 57.4723C24.7844 56.2723 25.051 54.5389 27.3177 49.7389L30.3844 43.6056L25.5844 37.2056C23.051 33.7389 20.9177 30.1389 20.9177 29.3389C20.9177 28.2723 53.7177 3.87227 55.3177 3.87227C55.5844 3.87227 56.9177 5.2056 58.3844 6.8056ZM22.7844 37.8723L27.3177 44.2723L24.651 49.7389C23.1844 52.6723 20.5177 56.2723 18.651 57.7389C15.3177 60.1389 15.3177 60.1389 16.1177 57.6056C16.651 55.8723 15.5844 53.0723 12.7844 49.0723C7.85104 42.2723 6.51771 41.2056 3.98438 42.1389C0.251042 43.6056 2.51771 41.2056 9.85104 36.0056C13.9844 32.9389 17.5844 30.8056 17.851 31.0723C18.1177 31.3389 20.3844 34.4056 22.7844 37.8723Z" fill="white"/>
<path d="M11.3179 36.4056C8.11788 38.8056 8.25122 40.5389 12.6512 46.6723C16.5179 52.2723 20.1179 53.0723 22.7846 48.9389C23.8512 47.2056 23.3179 45.4723 19.9846 40.9389C15.3179 34.4056 14.3846 34.0056 11.3179 36.4056ZM18.1179 42.5389C20.7846 46.1389 20.9179 49.2056 18.5179 49.2056C17.4512 49.2056 11.5846 40.9389 11.5846 39.4723C11.5846 37.0723 15.3179 38.9389 18.1179 42.5389Z" fill="white"/>
</svg>
