<svg width="40" height="54" viewBox="0 0 40 54" fill="none" xmlns="http://www.w3.org/2000/svg">
<path d="M0 26.6667V53.3333H20H40V26.6667V7.39098e-06H20H0V26.6667ZM18.6667 6.66667V10.6667H10.6667H2.66667V6.66667V2.66667H10.6667H18.6667V6.66667ZM37.3333 10.6667V18.6667H29.3333H21.3333V10.6667V2.66667H29.3333H37.3333V10.6667ZM18.6667 21.3333V29.3333H10.6667H2.66667V21.3333V13.3333H10.6667H18.6667V21.3333ZM37.3333 25.3333V29.3333H29.3333H21.3333V25.3333V21.3333H29.3333H37.3333V25.3333ZM9.06667 33.6C10.2667 34.8 11.0667 34.8 12.2667 33.6C13.2 32.6667 14.9333 32 16.2667 32C18 32 18.6667 33.0667 18.6667 36V40H10.6667H2.66667V36C2.66667 33.0667 3.33333 32 5.06667 32C6.4 32 8.13333 32.6667 9.06667 33.6ZM27.7333 33.6C28.9333 34.8 29.7333 34.8 30.9333 33.6C31.8667 32.6667 33.6 32 34.9333 32C36.6667 32 37.3333 33.0667 37.3333 36V40H29.3333H21.3333V36C21.3333 33.0667 22 32 23.7333 32C25.0667 32 26.8 32.6667 27.7333 33.6ZM9.06667 44.2667C10.2667 45.4667 11.0667 45.4667 12.2667 44.2667C13.2 43.3333 14.9333 42.6667 16.2667 42.6667C18 42.6667 18.6667 43.7333 18.6667 46.6667V50.6667H10.6667H2.66667V46.6667C2.66667 43.7333 3.33333 42.6667 5.06667 42.6667C6.4 42.6667 8.13333 43.3333 9.06667 44.2667ZM27.7333 44.2667C28.9333 45.4667 29.7333 45.4667 30.9333 44.2667C31.8667 43.3333 33.6 42.6667 34.9333 42.6667C36.6667 42.6667 37.3333 43.7333 37.3333 46.6667V50.6667H29.3333H21.3333V46.6667C21.3333 43.7333 22 42.6667 23.7333 42.6667C25.0667 42.6667 26.8 43.3333 27.7333 44.2667Z" fill="white"/>
</svg>
